<?xml version="1.0" encoding="UTF-8" standalone="no"?>
<!DOCTYPE svg PUBLIC "-//W3C//DTD SVG 1.1//EN"
 "http://www.w3.org/Graphics/SVG/1.1/DTD/svg11.dtd">
<!-- Generated by graphviz version 2.43.0 (0)
 -->
<!-- Title: Controller Dependency Graph Pages: 1 -->
<svg width="833pt" height="445pt"
 viewBox="0.00 0.00 832.67 445.00" xmlns="http://www.w3.org/2000/svg" xmlns:xlink="http://www.w3.org/1999/xlink">
<g id="graph0" class="graph" transform="scale(1 1) rotate(0) translate(4 441)">
<title>Controller Dependency Graph</title>
<polygon fill="white" stroke="transparent" points="-4,4 -4,-441 828.67,-441 828.67,4 -4,4"/>
<!-- amazoncloudintegration -->
<g id="node1" class="node">
<title>amazoncloudintegration</title>
<polygon fill="none" stroke="black" points="218.67,-128.5 24.67,-128.5 24.67,-92.5 218.67,-92.5 218.67,-128.5"/>
<text text-anchor="middle" x="121.67" y="-106.8" font-family="Times,serif" font-size="14.00">AmazonCloudIntegration</text>
</g>
<!-- installation -->
<g id="node6" class="node">
<title>installation</title>
<polygon fill="none" stroke="black" points="595.67,-36 497.67,-36 497.67,0 595.67,0 595.67,-36"/>
<text text-anchor="middle" x="546.67" y="-14.3" font-family="Times,serif" font-size="14.00">Installation</text>
</g>
<!-- amazoncloudintegration&#45;&gt;installation -->
<g id="edge1" class="edge">
<title>amazoncloudintegration&#45;&gt;installation</title>
<path fill="none" stroke="black" d="M166.82,-92.43C186.78,-85.36 210.68,-77.53 232.67,-72 320.15,-49.99 423.67,-34.5 487.25,-26.17"/>
<polygon fill="black" stroke="black" points="488.02,-29.6 497.49,-24.84 487.12,-22.66 488.02,-29.6"/>
</g>
<!-- apiserver -->
<g id="node2" class="node">
<title>apiserver</title>
<polygon fill="none" stroke="black" points="166.17,-221 77.17,-221 77.17,-185 166.17,-185 166.17,-221"/>
<text text-anchor="middle" x="121.67" y="-199.3" font-family="Times,serif" font-size="14.00">APIServer</text>
</g>
<!-- apiserver&#45;&gt;amazoncloudintegration -->
<g id="edge2" class="edge">
<title>apiserver&#45;&gt;amazoncloudintegration</title>
<path fill="none" stroke="black" stroke-dasharray="5,2" d="M121.67,-184.98C121.67,-172.04 121.67,-153.98 121.67,-139"/>
<polygon fill="black" stroke="black" points="125.17,-138.75 121.67,-128.75 118.17,-138.75 125.17,-138.75"/>
</g>
<!-- clusterconnection -->
<g id="node4" class="node">
<title>clusterconnection</title>
<polygon fill="none" stroke="black" points="275.17,-72.5 275.17,-148.5 518.17,-148.5 518.17,-72.5 275.17,-72.5"/>
<text text-anchor="middle" x="396.67" y="-133.3" font-family="Times,serif" font-size="14.00">ClusterConnection</text>
<polyline fill="none" stroke="black" points="275.17,-125.5 518.17,-125.5 "/>
<text text-anchor="middle" x="396.67" y="-110.3" font-family="Times,serif" font-size="14.00">Standalone</text>
<text text-anchor="middle" x="396.67" y="-95.3" font-family="Times,serif" font-size="14.00">ManagementCluster</text>
<text text-anchor="middle" x="396.67" y="-80.3" font-family="Times,serif" font-size="14.00">ManagementClusterConnection</text>
</g>
<!-- apiserver&#45;&gt;clusterconnection -->
<g id="edge3" class="edge">
<title>apiserver&#45;&gt;clusterconnection</title>
<path fill="none" stroke="black" stroke-dasharray="5,2" d="M166.47,-187.26C195.93,-177.56 236.02,-164.37 274.5,-151.71"/>
<polygon fill="black" stroke="black" points="275.83,-154.95 284.24,-148.5 273.64,-148.3 275.83,-154.95"/>
</g>
<!-- apiserver&#45;&gt;installation -->
<g id="edge4" class="edge">
<title>apiserver&#45;&gt;installation</title>
<path fill="none" stroke="black" d="M77.16,-191.66C54.58,-183.92 29.14,-170.79 15.67,-149 -2.32,-119.89 -7.3,-97.37 15.67,-72 46.84,-37.56 355.11,-24.55 487.15,-20.53"/>
<polygon fill="black" stroke="black" points="487.59,-24.02 497.48,-20.23 487.38,-17.03 487.59,-24.02"/>
</g>
<!-- authentication -->
<g id="node3" class="node">
<title>authentication</title>
<polygon fill="none" stroke="black" points="758.67,-221 636.67,-221 636.67,-185 758.67,-185 758.67,-221"/>
<text text-anchor="middle" x="697.67" y="-199.3" font-family="Times,serif" font-size="14.00">Authentication</text>
</g>
<!-- authentication&#45;&gt;clusterconnection -->
<g id="edge5" class="edge">
<title>authentication&#45;&gt;clusterconnection</title>
<path fill="none" stroke="black" stroke-dasharray="5,2" d="M641.05,-184.98C609.04,-175.35 567.58,-162.89 527.94,-150.97"/>
<polygon fill="black" stroke="black" points="528.76,-147.56 518.18,-148.03 526.75,-154.26 528.76,-147.56"/>
</g>
<!-- authentication&#45;&gt;installation -->
<g id="edge6" class="edge">
<title>authentication&#45;&gt;installation</title>
<path fill="none" stroke="black" d="M685.51,-184.64C667.45,-159.2 632.08,-110.61 598.67,-72 590.23,-62.25 580.45,-52.03 571.67,-43.2"/>
<polygon fill="black" stroke="black" points="574.13,-40.71 564.57,-36.14 569.2,-45.68 574.13,-40.71"/>
</g>
<!-- clusterconnection&#45;&gt;installation -->
<g id="edge7" class="edge">
<title>clusterconnection&#45;&gt;installation</title>
<path fill="none" stroke="black" d="M458.11,-72.43C475.56,-61.9 494.02,-50.76 509.55,-41.4"/>
<polygon fill="black" stroke="black" points="511.57,-44.27 518.32,-36.1 507.95,-38.27 511.57,-44.27"/>
</g>
<!-- compliance -->
<g id="node5" class="node">
<title>compliance</title>
<polygon fill="none" stroke="black" points="701.67,-365 601.67,-365 601.67,-329 701.67,-329 701.67,-365"/>
<text text-anchor="middle" x="651.67" y="-343.3" font-family="Times,serif" font-size="14.00">Compliance</text>
</g>
<!-- compliance&#45;&gt;authentication -->
<g id="edge8" class="edge">
<title>compliance&#45;&gt;authentication</title>
<path fill="none" stroke="black" d="M657.22,-328.87C665.09,-304.56 679.59,-259.82 688.92,-231.01"/>
<polygon fill="black" stroke="black" points="692.35,-231.78 692.1,-221.19 685.69,-229.62 692.35,-231.78"/>
</g>
<!-- compliance&#45;&gt;clusterconnection -->
<g id="edge9" class="edge">
<title>compliance&#45;&gt;clusterconnection</title>
<path fill="none" stroke="black" stroke-dasharray="5,2" d="M650.94,-328.66C649.34,-309.45 644.32,-278.38 628.67,-257 595.5,-211.68 543.55,-177.2 497.21,-153.21"/>
<polygon fill="black" stroke="black" points="498.52,-149.96 488.02,-148.56 495.36,-156.2 498.52,-149.96"/>
</g>
<!-- compliance&#45;&gt;installation -->
<g id="edge10" class="edge">
<title>compliance&#45;&gt;installation</title>
<path fill="none" stroke="black" d="M679.77,-328.94C721.76,-301.1 793.35,-243.14 767.67,-185 735.97,-113.21 654.58,-65.4 599.92,-40.23"/>
<polygon fill="black" stroke="black" points="601.28,-37 590.72,-36.09 598.4,-43.38 601.28,-37"/>
</g>
<!-- logstorage -->
<g id="node9" class="node">
<title>logstorage</title>
<polygon fill="none" stroke="black" points="620.17,-293 521.17,-293 521.17,-257 620.17,-257 620.17,-293"/>
<text text-anchor="middle" x="570.67" y="-271.3" font-family="Times,serif" font-size="14.00">LogStorage</text>
</g>
<!-- compliance&#45;&gt;logstorage -->
<g id="edge11" class="edge">
<title>compliance&#45;&gt;logstorage</title>
<path fill="none" stroke="black" d="M631.65,-328.7C621.54,-319.97 609.13,-309.24 598.15,-299.75"/>
<polygon fill="black" stroke="black" points="600.32,-296.99 590.46,-293.1 595.74,-302.29 600.32,-296.99"/>
</g>
<!-- intrusiondetection -->
<g id="node7" class="node">
<title>intrusiondetection</title>
<polygon fill="none" stroke="black" points="381.17,-365 230.17,-365 230.17,-329 381.17,-329 381.17,-365"/>
<text text-anchor="middle" x="305.67" y="-343.3" font-family="Times,serif" font-size="14.00">IntrusionDetection</text>
</g>
<!-- intrusiondetection&#45;&gt;clusterconnection -->
<g id="edge12" class="edge">
<title>intrusiondetection&#45;&gt;clusterconnection</title>
<path fill="none" stroke="black" stroke-dasharray="5,2" d="M312.36,-328.76C326.16,-293.21 358.17,-210.72 378.54,-158.23"/>
<polygon fill="black" stroke="black" points="381.84,-159.38 382.2,-148.8 375.32,-156.85 381.84,-159.38"/>
</g>
<!-- intrusiondetection&#45;&gt;installation -->
<g id="edge13" class="edge">
<title>intrusiondetection&#45;&gt;installation</title>
<path fill="none" stroke="black" d="M295.25,-328.83C268.14,-281.75 201.85,-148.98 265.67,-72 293.28,-38.69 413.56,-26.17 487.52,-21.57"/>
<polygon fill="black" stroke="black" points="487.85,-25.06 497.63,-20.97 487.44,-18.07 487.85,-25.06"/>
</g>
<!-- intrusiondetection&#45;&gt;logstorage -->
<g id="edge14" class="edge">
<title>intrusiondetection&#45;&gt;logstorage</title>
<path fill="none" stroke="black" d="M370.16,-328.97C413.13,-317.61 469.21,-302.8 511.12,-291.73"/>
<polygon fill="black" stroke="black" points="512.14,-295.08 520.92,-289.14 510.36,-288.31 512.14,-295.08"/>
</g>
<!-- logcollector -->
<g id="node8" class="node">
<title>logcollector</title>
<polygon fill="none" stroke="black" points="545.17,-365 438.17,-365 438.17,-329 545.17,-329 545.17,-365"/>
<text text-anchor="middle" x="491.67" y="-343.3" font-family="Times,serif" font-size="14.00">LogCollector</text>
</g>
<!-- logcollector&#45;&gt;clusterconnection -->
<g id="edge15" class="edge">
<title>logcollector&#45;&gt;clusterconnection</title>
<path fill="none" stroke="black" stroke-dasharray="5,2" d="M484.68,-328.76C470.28,-293.21 436.87,-210.72 415.6,-158.23"/>
<polygon fill="black" stroke="black" points="418.78,-156.75 411.78,-148.8 412.29,-159.38 418.78,-156.75"/>
</g>
<!-- logcollector&#45;&gt;installation -->
<g id="edge16" class="edge">
<title>logcollector&#45;&gt;installation</title>
<path fill="none" stroke="black" d="M494.85,-328.89C501.16,-294.74 515.62,-215.65 526.67,-149 532.54,-113.56 538.75,-72.58 542.66,-46.26"/>
<polygon fill="black" stroke="black" points="546.14,-46.67 544.14,-36.26 539.22,-45.64 546.14,-46.67"/>
</g>
<!-- logcollector&#45;&gt;logstorage -->
<g id="edge17" class="edge">
<title>logcollector&#45;&gt;logstorage</title>
<path fill="none" stroke="black" d="M511.2,-328.7C521.05,-319.97 533.16,-309.24 543.87,-299.75"/>
<polygon fill="black" stroke="black" points="546.2,-302.36 551.37,-293.1 541.56,-297.12 546.2,-302.36"/>
</g>
<!-- logstorage&#45;&gt;authentication -->
<g id="edge18" class="edge">
<title>logstorage&#45;&gt;authentication</title>
<path fill="none" stroke="black" d="M601.74,-256.88C618.5,-247.64 639.38,-236.13 657.37,-226.21"/>
<polygon fill="black" stroke="black" points="659.41,-229.08 666.48,-221.19 656.04,-222.95 659.41,-229.08"/>
</g>
<!-- logstorage&#45;&gt;clusterconnection -->
<g id="edge19" class="edge">
<title>logstorage&#45;&gt;clusterconnection</title>
<path fill="none" stroke="black" stroke-dasharray="5,2" d="M552.38,-256.92C526.88,-233.11 479.77,-189.11 444.02,-155.72"/>
<polygon fill="black" stroke="black" points="446.27,-153.03 436.57,-148.77 441.49,-158.15 446.27,-153.03"/>
</g>
<!-- logstorage&#45;&gt;installation -->
<g id="edge20" class="edge">
<title>logstorage&#45;&gt;installation</title>
<path fill="none" stroke="black" d="M571.02,-256.85C571.47,-221.87 571.19,-139.83 560.67,-72 559.36,-63.54 557.24,-54.47 555.04,-46.28"/>
<polygon fill="black" stroke="black" points="558.36,-45.14 552.27,-36.47 551.62,-47.05 558.36,-45.14"/>
</g>
<!-- manager -->
<g id="node10" class="node">
<title>manager</title>
<polygon fill="none" stroke="black" points="691.67,-437 611.67,-437 611.67,-401 691.67,-401 691.67,-437"/>
<text text-anchor="middle" x="651.67" y="-415.3" font-family="Times,serif" font-size="14.00">Manager</text>
</g>
<!-- manager&#45;&gt;authentication -->
<g id="edge21" class="edge">
<title>manager&#45;&gt;authentication</title>
<path fill="none" stroke="black" d="M679.47,-400.87C691.44,-391.84 704.16,-379.59 710.67,-365 730.15,-321.32 717.9,-264.39 707.56,-231.24"/>
<polygon fill="black" stroke="black" points="710.76,-229.77 704.31,-221.36 704.11,-231.96 710.76,-229.77"/>
</g>
<!-- manager&#45;&gt;clusterconnection -->
<g id="edge22" class="edge">
<title>manager&#45;&gt;clusterconnection</title>
<path fill="none" stroke="black" stroke-dasharray="5,2" d="M611.66,-413.92C554.24,-407.2 452.73,-391.8 428.67,-365 378.18,-308.75 380.72,-215.07 388.07,-158.71"/>
<polygon fill="black" stroke="black" points="391.56,-159.03 389.49,-148.64 384.63,-158.06 391.56,-159.03"/>
</g>
<!-- manager&#45;&gt;compliance -->
<g id="edge23" class="edge">
<title>manager&#45;&gt;compliance</title>
<path fill="none" stroke="black" d="M651.67,-400.7C651.67,-392.98 651.67,-383.71 651.67,-375.11"/>
<polygon fill="black" stroke="black" points="655.17,-375.1 651.67,-365.1 648.17,-375.1 655.17,-375.1"/>
</g>
<!-- manager&#45;&gt;installation -->
<g id="edge24" class="edge">
<title>manager&#45;&gt;installation</title>
<path fill="none" stroke="black" d="M691.79,-405.1C742.9,-385.86 824.67,-344.39 824.67,-276 824.67,-276 824.67,-276 824.67,-202 824.67,-98.1 687.52,-49.87 605.89,-30.37"/>
<polygon fill="black" stroke="black" points="606.26,-26.87 595.73,-28.02 604.69,-33.69 606.26,-26.87"/>
</g>
<!-- manager&#45;&gt;logstorage -->
<g id="edge25" class="edge">
<title>manager&#45;&gt;logstorage</title>
<path fill="none" stroke="black" d="M626.31,-400.78C614.44,-391.49 601.1,-379.05 592.67,-365 581.37,-346.18 575.86,-321.8 573.18,-303.32"/>
<polygon fill="black" stroke="black" points="576.63,-302.69 571.91,-293.21 569.69,-303.57 576.63,-302.69"/>
</g>
</g>
</svg>
