<?xml version="1.0" encoding="UTF-8" standalone="no"?>
<!DOCTYPE svg PUBLIC "-//W3C//DTD SVG 1.1//EN"
 "http://www.w3.org/Graphics/SVG/1.1/DTD/svg11.dtd">
<!-- Generated by graphviz version 2.43.0 (0)
 -->
<!-- Title: Controller Dependency Graph Pages: 1 -->
<svg width="901pt" height="478pt"
 viewBox="0.00 0.00 901.00 478.00" xmlns="http://www.w3.org/2000/svg" xmlns:xlink="http://www.w3.org/1999/xlink">
<g id="graph0" class="graph" transform="scale(1 1) rotate(0) translate(4 474)">
<title>Controller Dependency Graph</title>
<polygon fill="white" stroke="transparent" points="-4,4 -4,-474 897,-474 897,4 -4,4"/>
<!-- amazoncloudintegration -->
<g id="node1" class="node">
<title>amazoncloudintegration</title>
<polygon fill="none" stroke="black" points="194,-129.5 0,-129.5 0,-93.5 194,-93.5 194,-129.5"/>
<text text-anchor="middle" x="97" y="-107.8" font-family="Times,serif" font-size="14.00">AmazonCloudIntegration</text>
</g>
<!-- installation -->
<g id="node6" class="node">
<title>installation</title>
<polygon fill="none" stroke="black" points="688,-36 590,-36 590,0 688,0 688,-36"/>
<text text-anchor="middle" x="639" y="-14.3" font-family="Times,serif" font-size="14.00">Installation</text>
</g>
<!-- amazoncloudintegration&#45;&gt;installation -->
<g id="edge1" class="edge">
<title>amazoncloudintegration&#45;&gt;installation</title>
<path fill="none" stroke="black" d="M126.48,-93.26C150.52,-80.1 185.83,-62.77 219,-54 285.44,-36.44 480.53,-25.8 579.68,-21.39"/>
<polygon fill="black" stroke="black" points="580,-24.88 589.84,-20.94 579.7,-17.88 580,-24.88"/>
</g>
<!-- apiserver -->
<g id="node2" class="node">
<title>apiserver</title>
<polygon fill="none" stroke="black" points="277.5,-237 188.5,-237 188.5,-201 277.5,-201 277.5,-237"/>
<text text-anchor="middle" x="233" y="-215.3" font-family="Times,serif" font-size="14.00">APIServer</text>
</g>
<!-- apiserver&#45;&gt;amazoncloudintegration -->
<g id="edge2" class="edge">
<title>apiserver&#45;&gt;amazoncloudintegration</title>
<path fill="none" stroke="black" stroke-dasharray="5,2" d="M188.23,-213.31C150.06,-208.29 99.47,-198.81 87,-183 77.36,-170.78 79.62,-153.52 84.41,-139.14"/>
<polygon fill="black" stroke="black" points="87.71,-140.33 88.02,-129.74 81.17,-137.82 87.71,-140.33"/>
<text text-anchor="middle" x="153" y="-171.8" font-family="Times,serif" font-size="14.00">amazonCRDExists</text>
</g>
<!-- clusterconnection -->
<g id="node4" class="node">
<title>clusterconnection</title>
<polygon fill="none" stroke="black" points="367.5,-73.5 367.5,-149.5 610.5,-149.5 610.5,-73.5 367.5,-73.5"/>
<text text-anchor="middle" x="489" y="-134.3" font-family="Times,serif" font-size="14.00">ClusterConnection</text>
<polyline fill="none" stroke="black" points="367.5,-126.5 610.5,-126.5 "/>
<text text-anchor="middle" x="489" y="-111.3" font-family="Times,serif" font-size="14.00">Standalone</text>
<text text-anchor="middle" x="489" y="-96.3" font-family="Times,serif" font-size="14.00">ManagementCluster</text>
<text text-anchor="middle" x="489" y="-81.3" font-family="Times,serif" font-size="14.00">ManagementClusterConnection</text>
</g>
<!-- apiserver&#45;&gt;clusterconnection -->
<g id="edge3" class="edge">
<title>apiserver&#45;&gt;clusterconnection</title>
<path fill="none" stroke="black" stroke-dasharray="5,2" d="M251.35,-200.87C263.72,-190.12 280.86,-176.69 298,-168 316.68,-158.53 337.23,-150.43 357.71,-143.59"/>
<polygon fill="black" stroke="black" points="359,-146.85 367.43,-140.43 356.84,-140.19 359,-146.85"/>
<text text-anchor="middle" x="318" y="-171.8" font-family="Times,serif" font-size="14.00">TSEE</text>
</g>
<!-- apiserver&#45;&gt;installation -->
<g id="edge4" class="edge">
<title>apiserver&#45;&gt;installation</title>
<path fill="none" stroke="black" d="M235.15,-200.85C240.45,-166.56 257.51,-89.78 307,-54 349.27,-23.44 496.22,-18.55 579.76,-18.34"/>
<polygon fill="black" stroke="black" points="579.87,-21.84 589.87,-18.34 579.87,-14.84 579.87,-21.84"/>
</g>
<!-- authentication -->
<g id="node3" class="node">
<title>authentication</title>
<polygon fill="none" stroke="black" points="827,-237 705,-237 705,-201 827,-201 827,-237"/>
<text text-anchor="middle" x="766" y="-215.3" font-family="Times,serif" font-size="14.00">Authentication</text>
</g>
<!-- authentication&#45;&gt;clusterconnection -->
<g id="edge5" class="edge">
<title>authentication&#45;&gt;clusterconnection</title>
<path fill="none" stroke="black" d="M721.19,-200.93C687.31,-188.03 639.35,-169.76 595.8,-153.18"/>
<polygon fill="black" stroke="black" points="596.89,-149.85 586.3,-149.56 594.4,-156.39 596.89,-149.85"/>
</g>
<!-- authentication&#45;&gt;installation -->
<g id="edge6" class="edge">
<title>authentication&#45;&gt;installation</title>
<path fill="none" stroke="black" d="M761.57,-200.97C752.63,-169.17 729.89,-99.83 691,-54 687.39,-49.75 683.14,-45.79 678.66,-42.19"/>
<polygon fill="black" stroke="black" points="680.53,-39.23 670.41,-36.1 676.37,-44.86 680.53,-39.23"/>
</g>
<!-- clusterconnection&#45;&gt;installation -->
<g id="edge7" class="edge">
<title>clusterconnection&#45;&gt;installation</title>
<path fill="none" stroke="black" d="M550.01,-73.28C567.64,-62.53 586.34,-51.12 602.02,-41.56"/>
<polygon fill="black" stroke="black" points="604.16,-44.35 610.87,-36.16 600.51,-38.38 604.16,-44.35"/>
</g>
<!-- compliance -->
<g id="node5" class="node">
<title>compliance</title>
<polygon fill="none" stroke="black" points="807,-397 707,-397 707,-361 807,-361 807,-397"/>
<text text-anchor="middle" x="757" y="-375.3" font-family="Times,serif" font-size="14.00">Compliance</text>
</g>
<!-- compliance&#45;&gt;authentication -->
<g id="edge8" class="edge">
<title>compliance&#45;&gt;authentication</title>
<path fill="none" stroke="black" d="M757.98,-360.79C759.54,-333.48 762.58,-279.99 764.44,-247.38"/>
<polygon fill="black" stroke="black" points="767.95,-247.37 765.02,-237.19 760.96,-246.97 767.95,-247.37"/>
</g>
<!-- compliance&#45;&gt;clusterconnection -->
<g id="edge9" class="edge">
<title>compliance&#45;&gt;clusterconnection</title>
<path fill="none" stroke="black" d="M750.32,-360.85C742.36,-341.77 727.74,-310.65 709,-288 665.36,-235.27 603.6,-187.7 556.62,-155.43"/>
<polygon fill="black" stroke="black" points="558.56,-152.51 548.33,-149.78 554.63,-158.3 558.56,-152.51"/>
</g>
<!-- compliance&#45;&gt;installation -->
<g id="edge10" class="edge">
<title>compliance&#45;&gt;installation</title>
<path fill="none" stroke="black" d="M785.87,-360.89C814.78,-341.33 855,-306.41 855,-263.5 855,-263.5 855,-263.5 855,-110.5 855,-42.08 761.96,-24.05 698.01,-19.75"/>
<polygon fill="black" stroke="black" points="698.2,-16.25 688.01,-19.17 697.79,-23.24 698.2,-16.25"/>
</g>
<!-- logstorage -->
<g id="node9" class="node">
<title>logstorage</title>
<polygon fill="none" stroke="black" points="700.5,-324 601.5,-324 601.5,-288 700.5,-288 700.5,-324"/>
<text text-anchor="middle" x="651" y="-302.3" font-family="Times,serif" font-size="14.00">LogStorage</text>
</g>
<!-- compliance&#45;&gt;logstorage -->
<g id="edge11" class="edge">
<title>compliance&#45;&gt;logstorage</title>
<path fill="none" stroke="black" d="M731.61,-360.99C717.68,-351.67 700.23,-339.97 685.13,-329.86"/>
<polygon fill="black" stroke="black" points="686.81,-326.77 676.55,-324.11 682.91,-332.59 686.81,-326.77"/>
</g>
<!-- intrusiondetection -->
<g id="node7" class="node">
<title>intrusiondetection</title>
<polygon fill="none" stroke="black" points="650.5,-397 499.5,-397 499.5,-361 650.5,-361 650.5,-397"/>
<text text-anchor="middle" x="575" y="-375.3" font-family="Times,serif" font-size="14.00">IntrusionDetection</text>
</g>
<!-- intrusiondetection&#45;&gt;clusterconnection -->
<g id="edge12" class="edge">
<title>intrusiondetection&#45;&gt;clusterconnection</title>
<path fill="none" stroke="black" d="M566.56,-360.75C563.97,-355.15 561.22,-348.87 559,-343 535.42,-280.69 514.08,-206.66 501.32,-159.64"/>
<polygon fill="black" stroke="black" points="504.63,-158.48 498.65,-149.74 497.88,-160.3 504.63,-158.48"/>
</g>
<!-- intrusiondetection&#45;&gt;installation -->
<g id="edge13" class="edge">
<title>intrusiondetection&#45;&gt;installation</title>
<path fill="none" stroke="black" d="M578.23,-360.74C581.62,-342.62 587.14,-313.3 592,-288 603.8,-226.63 608.28,-211.57 619,-150 625.21,-114.34 631.34,-73.04 635.14,-46.49"/>
<polygon fill="black" stroke="black" points="638.63,-46.81 636.58,-36.41 631.7,-45.82 638.63,-46.81"/>
</g>
<!-- intrusiondetection&#45;&gt;logstorage -->
<g id="edge14" class="edge">
<title>intrusiondetection&#45;&gt;logstorage</title>
<path fill="none" stroke="black" d="M593.4,-360.81C603.01,-351.83 614.93,-340.69 625.43,-330.89"/>
<polygon fill="black" stroke="black" points="627.85,-333.41 632.77,-324.03 623.08,-328.3 627.85,-333.41"/>
</g>
<!-- logcollector -->
<g id="node8" class="node">
<title>logcollector</title>
<polygon fill="none" stroke="black" points="405.5,-397 298.5,-397 298.5,-361 405.5,-361 405.5,-397"/>
<text text-anchor="middle" x="352" y="-375.3" font-family="Times,serif" font-size="14.00">LogCollector</text>
</g>
<!-- logcollector&#45;&gt;clusterconnection -->
<g id="edge15" class="edge">
<title>logcollector&#45;&gt;clusterconnection</title>
<path fill="none" stroke="black" stroke-dasharray="5,2" d="M348.32,-360.93C343.87,-336.45 338.64,-290.43 353,-255 368.86,-215.87 401.06,-181.34 430.14,-156.07"/>
<polygon fill="black" stroke="black" points="432.5,-158.66 437.85,-149.52 427.96,-153.33 432.5,-158.66"/>
<text text-anchor="middle" x="413" y="-258.8" font-family="Times,serif" font-size="14.00">AdditionalStores</text>
</g>
<!-- logcollector&#45;&gt;installation -->
<g id="edge16" class="edge">
<title>logcollector&#45;&gt;installation</title>
<path fill="none" stroke="black" d="M345.57,-360.74C327.66,-309.41 283.29,-156.11 358,-73 386.86,-40.89 506.08,-27.49 579.65,-22.19"/>
<polygon fill="black" stroke="black" points="579.98,-25.68 589.71,-21.5 579.49,-18.7 579.98,-25.68"/>
</g>
<!-- logcollector&#45;&gt;logstorage -->
<g id="edge17" class="edge">
<title>logcollector&#45;&gt;logstorage</title>
<path fill="none" stroke="black" d="M405.8,-365.22C458.03,-352.82 537.15,-334.03 591.3,-321.18"/>
<polygon fill="black" stroke="black" points="592.19,-324.56 601.11,-318.85 590.57,-317.75 592.19,-324.56"/>
</g>
<!-- logstorage&#45;&gt;authentication -->
<g id="edge18" class="edge">
<title>logstorage&#45;&gt;authentication</title>
<path fill="none" stroke="black" d="M674.27,-287.8C691.65,-274.95 715.59,-257.26 734.66,-243.17"/>
<polygon fill="black" stroke="black" points="736.8,-245.93 742.76,-237.18 732.64,-240.3 736.8,-245.93"/>
</g>
<!-- logstorage&#45;&gt;clusterconnection -->
<g id="edge19" class="edge">
<title>logstorage&#45;&gt;clusterconnection</title>
<path fill="none" stroke="black" d="M637.46,-287.91C616.66,-261.77 575.42,-210.43 539,-168 535.94,-164.44 532.75,-160.77 529.52,-157.1"/>
<polygon fill="black" stroke="black" points="532.12,-154.76 522.87,-149.6 526.88,-159.4 532.12,-154.76"/>
</g>
<!-- logstorage&#45;&gt;installation -->
<g id="edge20" class="edge">
<title>logstorage&#45;&gt;installation</title>
<path fill="none" stroke="black" d="M653.45,-287.75C658.78,-246.74 669.65,-140.44 653,-54 652.47,-51.26 651.73,-48.47 650.87,-45.71"/>
<polygon fill="black" stroke="black" points="654.05,-44.24 647.33,-36.05 647.48,-46.65 654.05,-44.24"/>
</g>
<!-- manager -->
<g id="node10" class="node">
<title>manager</title>
<polygon fill="none" stroke="black" points="797,-470 717,-470 717,-434 797,-434 797,-470"/>
<text text-anchor="middle" x="757" y="-448.3" font-family="Times,serif" font-size="14.00">Manager</text>
</g>
<!-- manager&#45;&gt;authentication -->
<g id="edge21" class="edge">
<title>manager&#45;&gt;authentication</title>
<path fill="none" stroke="black" d="M784.19,-433.91C796.35,-424.64 809.4,-412 816,-397 838.68,-345.49 806.43,-281.01 784.14,-245.83"/>
<polygon fill="black" stroke="black" points="786.85,-243.59 778.45,-237.14 780.99,-247.42 786.85,-243.59"/>
</g>
<!-- manager&#45;&gt;clusterconnection -->
<g id="edge22" class="edge">
<title>manager&#45;&gt;clusterconnection</title>
<path fill="none" stroke="black" d="M717,-448.9C649.68,-444.45 518.28,-431.45 490,-397 475.37,-379.18 481.55,-236.01 485.97,-159.82"/>
<polygon fill="black" stroke="black" points="489.48,-159.72 486.57,-149.53 482.49,-159.31 489.48,-159.72"/>
</g>
<!-- manager&#45;&gt;compliance -->
<g id="edge23" class="edge">
<title>manager&#45;&gt;compliance</title>
<path fill="none" stroke="black" d="M757,-433.81C757,-425.79 757,-416.05 757,-407.07"/>
<polygon fill="black" stroke="black" points="760.5,-407.03 757,-397.03 753.5,-407.03 760.5,-407.03"/>
</g>
<!-- manager&#45;&gt;installation -->
<g id="edge24" class="edge">
<title>manager&#45;&gt;installation</title>
<path fill="none" stroke="black" d="M797.07,-447.01C837.19,-440.53 893,-423.68 893,-380 893,-380 893,-380 893,-110.5 893,-75.76 871.4,-66.53 839,-54 793.54,-36.42 738.83,-27.62 698.14,-23.25"/>
<polygon fill="black" stroke="black" points="698.41,-19.76 688.11,-22.23 697.7,-26.72 698.41,-19.76"/>
</g>
<!-- manager&#45;&gt;logstorage -->
<g id="edge25" class="edge">
<title>manager&#45;&gt;logstorage</title>
<path fill="none" stroke="black" d="M734.77,-433.86C722.89,-423.96 708.58,-410.76 698,-397 682.97,-377.45 670.34,-352.4 661.96,-333.69"/>
<polygon fill="black" stroke="black" points="665.07,-332.07 657.87,-324.29 658.65,-334.86 665.07,-332.07"/>
</g>
</g>
</svg>
