<?xml version="1.0" encoding="UTF-8" standalone="no"?>
<!DOCTYPE svg PUBLIC "-//W3C//DTD SVG 1.1//EN"
 "http://www.w3.org/Graphics/SVG/1.1/DTD/svg11.dtd">
<!-- Generated by graphviz version 2.43.0 (0)
 -->
<!-- Title: Controller Dependency Graph Pages: 1 -->
<svg width="1003pt" height="478pt"
 viewBox="0.00 0.00 1003.00 478.00" xmlns="http://www.w3.org/2000/svg" xmlns:xlink="http://www.w3.org/1999/xlink">
<g id="graph0" class="graph" transform="scale(1 1) rotate(0) translate(4 474)">
<title>Controller Dependency Graph</title>
<polygon fill="white" stroke="transparent" points="-4,4 -4,-474 999,-474 999,4 -4,4"/>
<!-- amazoncloudintegration -->
<g id="node1" class="node">
<title>amazoncloudintegration</title>
<polygon fill="none" stroke="black" points="194,-129.5 0,-129.5 0,-93.5 194,-93.5 194,-129.5"/>
<text text-anchor="middle" x="97" y="-107.8" font-family="Times,serif" font-size="14.00">AmazonCloudIntegration</text>
</g>
<!-- installation -->
<g id="node6" class="node">
<title>installation</title>
<polygon fill="none" stroke="black" points="707,-36 609,-36 609,0 707,0 707,-36"/>
<text text-anchor="middle" x="658" y="-14.3" font-family="Times,serif" font-size="14.00">Installation</text>
</g>
<!-- amazoncloudintegration&#45;&gt;installation -->
<g id="edge1" class="edge">
<title>amazoncloudintegration&#45;&gt;installation</title>
<path fill="none" stroke="black" d="M125.98,-93.5C150.03,-80.28 185.59,-62.77 219,-54 289.07,-35.61 495.94,-25.27 598.69,-21.14"/>
<polygon fill="black" stroke="black" points="599.05,-24.63 608.9,-20.73 598.77,-17.63 599.05,-24.63"/>
</g>
<!-- apiserver -->
<g id="node2" class="node">
<title>apiserver</title>
<polygon fill="none" stroke="black" points="277.5,-237 188.5,-237 188.5,-201 277.5,-201 277.5,-237"/>
<text text-anchor="middle" x="233" y="-215.3" font-family="Times,serif" font-size="14.00">APIServer</text>
</g>
<!-- apiserver&#45;&gt;amazoncloudintegration -->
<g id="edge2" class="edge">
<title>apiserver&#45;&gt;amazoncloudintegration</title>
<path fill="none" stroke="black" stroke-dasharray="5,2" d="M188.23,-213.31C150.06,-208.29 99.47,-198.81 87,-183 77.36,-170.78 79.62,-153.52 84.41,-139.14"/>
<polygon fill="black" stroke="black" points="87.71,-140.33 88.02,-129.74 81.17,-137.82 87.71,-140.33"/>
<text text-anchor="middle" x="153" y="-171.8" font-family="Times,serif" font-size="14.00">amazonCRDExists</text>
</g>
<!-- clusterconnection -->
<g id="node4" class="node">
<title>clusterconnection</title>
<polygon fill="none" stroke="black" points="367.5,-73.5 367.5,-149.5 610.5,-149.5 610.5,-73.5 367.5,-73.5"/>
<text text-anchor="middle" x="489" y="-134.3" font-family="Times,serif" font-size="14.00">ClusterConnection</text>
<polyline fill="none" stroke="black" points="367.5,-126.5 610.5,-126.5 "/>
<text text-anchor="middle" x="489" y="-111.3" font-family="Times,serif" font-size="14.00">Standalone</text>
<text text-anchor="middle" x="489" y="-96.3" font-family="Times,serif" font-size="14.00">ManagementCluster</text>
<text text-anchor="middle" x="489" y="-81.3" font-family="Times,serif" font-size="14.00">ManagementClusterConnection</text>
</g>
<!-- apiserver&#45;&gt;clusterconnection -->
<g id="edge3" class="edge">
<title>apiserver&#45;&gt;clusterconnection</title>
<path fill="none" stroke="black" stroke-dasharray="5,2" d="M251.35,-200.87C263.72,-190.12 280.86,-176.69 298,-168 316.68,-158.53 337.23,-150.43 357.71,-143.59"/>
<polygon fill="black" stroke="black" points="359,-146.85 367.43,-140.43 356.84,-140.19 359,-146.85"/>
<text text-anchor="middle" x="318" y="-171.8" font-family="Times,serif" font-size="14.00">TSEE</text>
</g>
<!-- apiserver&#45;&gt;installation -->
<g id="edge4" class="edge">
<title>apiserver&#45;&gt;installation</title>
<path fill="none" stroke="black" d="M235.14,-200.82C240.4,-166.49 257.41,-89.64 307,-54 330.1,-37.4 504.53,-26.46 598.48,-21.71"/>
<polygon fill="black" stroke="black" points="598.88,-25.19 608.7,-21.2 598.54,-18.2 598.88,-25.19"/>
</g>
<!-- authentication -->
<g id="node3" class="node">
<title>authentication</title>
<polygon fill="none" stroke="black" points="827,-237 705,-237 705,-201 827,-201 827,-237"/>
<text text-anchor="middle" x="766" y="-215.3" font-family="Times,serif" font-size="14.00">Authentication</text>
</g>
<!-- authentication&#45;&gt;clusterconnection -->
<g id="edge5" class="edge">
<title>authentication&#45;&gt;clusterconnection</title>
<path fill="none" stroke="black" d="M721.19,-200.93C687.31,-188.03 639.35,-169.76 595.8,-153.18"/>
<polygon fill="black" stroke="black" points="596.89,-149.85 586.3,-149.56 594.4,-156.39 596.89,-149.85"/>
</g>
<!-- authentication&#45;&gt;installation -->
<g id="edge6" class="edge">
<title>authentication&#45;&gt;installation</title>
<path fill="none" stroke="black" d="M760.24,-200.76C749.44,-169.78 724.22,-103.35 691,-54 688.64,-50.49 685.92,-47 683.08,-43.66"/>
<polygon fill="black" stroke="black" points="685.64,-41.27 676.34,-36.2 680.44,-45.97 685.64,-41.27"/>
</g>
<!-- clusterconnection&#45;&gt;installation -->
<g id="edge7" class="edge">
<title>clusterconnection&#45;&gt;installation</title>
<path fill="none" stroke="black" d="M557.74,-73.28C577.97,-62.33 599.45,-50.7 617.32,-41.02"/>
<polygon fill="black" stroke="black" points="619.18,-44 626.31,-36.16 615.85,-37.84 619.18,-44"/>
</g>
<!-- compliance -->
<g id="node5" class="node">
<title>compliance</title>
<polygon fill="none" stroke="black" points="807,-397 707,-397 707,-361 807,-361 807,-397"/>
<text text-anchor="middle" x="757" y="-375.3" font-family="Times,serif" font-size="14.00">Compliance</text>
</g>
<!-- compliance&#45;&gt;authentication -->
<g id="edge8" class="edge">
<title>compliance&#45;&gt;authentication</title>
<path fill="none" stroke="black" d="M757.98,-360.79C759.54,-333.48 762.58,-279.99 764.44,-247.38"/>
<polygon fill="black" stroke="black" points="767.95,-247.37 765.02,-237.19 760.96,-246.97 767.95,-247.37"/>
</g>
<!-- compliance&#45;&gt;clusterconnection -->
<g id="edge9" class="edge">
<title>compliance&#45;&gt;clusterconnection</title>
<path fill="none" stroke="black" d="M750.32,-360.85C742.36,-341.77 727.74,-310.65 709,-288 665.36,-235.27 603.6,-187.7 556.62,-155.43"/>
<polygon fill="black" stroke="black" points="558.56,-152.51 548.33,-149.78 554.63,-158.3 558.56,-152.51"/>
</g>
<!-- compliance&#45;&gt;installation -->
<g id="edge10" class="edge">
<title>compliance&#45;&gt;installation</title>
<path fill="none" stroke="black" d="M785.87,-360.89C814.78,-341.33 855,-306.41 855,-263.5 855,-263.5 855,-263.5 855,-110.5 855,-49.13 775.4,-28.81 717.4,-22.15"/>
<polygon fill="black" stroke="black" points="717.51,-18.64 707.2,-21.09 716.79,-25.61 717.51,-18.64"/>
</g>
<!-- logstorage -->
<g id="node9" class="node">
<title>logstorage</title>
<polygon fill="none" stroke="black" points="700.5,-324 601.5,-324 601.5,-288 700.5,-288 700.5,-324"/>
<text text-anchor="middle" x="651" y="-302.3" font-family="Times,serif" font-size="14.00">LogStorage</text>
</g>
<!-- compliance&#45;&gt;logstorage -->
<g id="edge11" class="edge">
<title>compliance&#45;&gt;logstorage</title>
<path fill="none" stroke="black" d="M731.61,-360.99C717.68,-351.67 700.23,-339.97 685.13,-329.86"/>
<polygon fill="black" stroke="black" points="686.81,-326.77 676.55,-324.11 682.91,-332.59 686.81,-326.77"/>
</g>
<!-- intrusiondetection -->
<g id="node7" class="node">
<title>intrusiondetection</title>
<polygon fill="none" stroke="black" points="650.5,-397 499.5,-397 499.5,-361 650.5,-361 650.5,-397"/>
<text text-anchor="middle" x="575" y="-375.3" font-family="Times,serif" font-size="14.00">IntrusionDetection</text>
</g>
<!-- intrusiondetection&#45;&gt;clusterconnection -->
<g id="edge12" class="edge">
<title>intrusiondetection&#45;&gt;clusterconnection</title>
<path fill="none" stroke="black" d="M566.56,-360.75C563.97,-355.15 561.22,-348.87 559,-343 535.42,-280.69 514.08,-206.66 501.32,-159.64"/>
<polygon fill="black" stroke="black" points="504.63,-158.48 498.65,-149.74 497.88,-160.3 504.63,-158.48"/>
</g>
<!-- intrusiondetection&#45;&gt;installation -->
<g id="edge13" class="edge">
<title>intrusiondetection&#45;&gt;installation</title>
<path fill="none" stroke="black" d="M577.98,-360.69C581.18,-342.53 586.54,-313.17 592,-288 611.33,-198.91 638.23,-94.24 650.88,-45.93"/>
<polygon fill="black" stroke="black" points="654.27,-46.8 653.43,-36.23 647.5,-45.02 654.27,-46.8"/>
</g>
<!-- intrusiondetection&#45;&gt;logstorage -->
<g id="edge14" class="edge">
<title>intrusiondetection&#45;&gt;logstorage</title>
<path fill="none" stroke="black" d="M593.4,-360.81C603.01,-351.83 614.93,-340.69 625.43,-330.89"/>
<polygon fill="black" stroke="black" points="627.85,-333.41 632.77,-324.03 623.08,-328.3 627.85,-333.41"/>
</g>
<!-- logcollector -->
<g id="node8" class="node">
<title>logcollector</title>
<polygon fill="none" stroke="black" points="405.5,-397 298.5,-397 298.5,-361 405.5,-361 405.5,-397"/>
<text text-anchor="middle" x="352" y="-375.3" font-family="Times,serif" font-size="14.00">LogCollector</text>
</g>
<!-- logcollector&#45;&gt;clusterconnection -->
<g id="edge15" class="edge">
<title>logcollector&#45;&gt;clusterconnection</title>
<path fill="none" stroke="black" stroke-dasharray="5,2" d="M348.32,-360.93C343.87,-336.45 338.64,-290.43 353,-255 368.86,-215.87 401.06,-181.34 430.14,-156.07"/>
<polygon fill="black" stroke="black" points="432.5,-158.66 437.85,-149.52 427.96,-153.33 432.5,-158.66"/>
<text text-anchor="middle" x="413" y="-258.8" font-family="Times,serif" font-size="14.00">AdditionalStores</text>
</g>
<!-- logcollector&#45;&gt;installation -->
<g id="edge16" class="edge">
<title>logcollector&#45;&gt;installation</title>
<path fill="none" stroke="black" d="M345.52,-360.7C327.49,-309.26 282.8,-155.67 358,-73 389.48,-38.39 520.58,-25.83 598.68,-21.37"/>
<polygon fill="black" stroke="black" points="599.07,-24.85 608.86,-20.82 598.69,-17.86 599.07,-24.85"/>
</g>
<!-- logcollector&#45;&gt;logstorage -->
<g id="edge17" class="edge">
<title>logcollector&#45;&gt;logstorage</title>
<path fill="none" stroke="black" d="M405.8,-365.22C458.03,-352.82 537.15,-334.03 591.3,-321.18"/>
<polygon fill="black" stroke="black" points="592.19,-324.56 601.11,-318.85 590.57,-317.75 592.19,-324.56"/>
</g>
<!-- logstorage&#45;&gt;authentication -->
<g id="edge18" class="edge">
<title>logstorage&#45;&gt;authentication</title>
<path fill="none" stroke="black" d="M674.27,-287.8C691.65,-274.95 715.59,-257.26 734.66,-243.17"/>
<polygon fill="black" stroke="black" points="736.8,-245.93 742.76,-237.18 732.64,-240.3 736.8,-245.93"/>
</g>
<!-- logstorage&#45;&gt;clusterconnection -->
<g id="edge19" class="edge">
<title>logstorage&#45;&gt;clusterconnection</title>
<path fill="none" stroke="black" d="M637.46,-287.91C616.66,-261.77 575.42,-210.43 539,-168 535.94,-164.44 532.75,-160.77 529.52,-157.1"/>
<polygon fill="black" stroke="black" points="532.12,-154.76 522.87,-149.6 526.88,-159.4 532.12,-154.76"/>
</g>
<!-- logstorage&#45;&gt;installation -->
<g id="edge20" class="edge">
<title>logstorage&#45;&gt;installation</title>
<path fill="none" stroke="black" d="M651.42,-287.97C652.58,-240.29 655.89,-105.18 657.32,-46.63"/>
<polygon fill="black" stroke="black" points="660.83,-46.39 657.58,-36.31 653.83,-46.22 660.83,-46.39"/>
</g>
<!-- manager -->
<g id="node10" class="node">
<title>manager</title>
<polygon fill="none" stroke="black" points="797,-470 717,-470 717,-434 797,-434 797,-470"/>
<text text-anchor="middle" x="757" y="-448.3" font-family="Times,serif" font-size="14.00">Manager</text>
</g>
<!-- manager&#45;&gt;authentication -->
<g id="edge21" class="edge">
<title>manager&#45;&gt;authentication</title>
<path fill="none" stroke="black" d="M784.19,-433.91C796.35,-424.64 809.4,-412 816,-397 838.68,-345.49 806.43,-281.01 784.14,-245.83"/>
<polygon fill="black" stroke="black" points="786.85,-243.59 778.45,-237.14 780.99,-247.42 786.85,-243.59"/>
</g>
<!-- manager&#45;&gt;clusterconnection -->
<g id="edge22" class="edge">
<title>manager&#45;&gt;clusterconnection</title>
<path fill="none" stroke="black" d="M717,-448.9C649.68,-444.45 518.28,-431.45 490,-397 475.37,-379.18 481.55,-236.01 485.97,-159.82"/>
<polygon fill="black" stroke="black" points="489.48,-159.72 486.57,-149.53 482.49,-159.31 489.48,-159.72"/>
</g>
<!-- manager&#45;&gt;compliance -->
<g id="edge23" class="edge">
<title>manager&#45;&gt;compliance</title>
<path fill="none" stroke="black" d="M757,-433.81C757,-425.79 757,-416.05 757,-407.07"/>
<polygon fill="black" stroke="black" points="760.5,-407.03 757,-397.03 753.5,-407.03 760.5,-407.03"/>
</g>
<!-- manager&#45;&gt;installation -->
<g id="edge24" class="edge">
<title>manager&#45;&gt;installation</title>
<path fill="none" stroke="black" d="M797.07,-447.01C837.19,-440.53 893,-423.68 893,-380 893,-380 893,-380 893,-110.5 893,-75.14 870.03,-66.6 837,-54 798.49,-39.31 752.87,-30.51 717.33,-25.41"/>
<polygon fill="black" stroke="black" points="717.49,-21.9 707.11,-24 716.54,-28.83 717.49,-21.9"/>
</g>
<!-- manager&#45;&gt;logstorage -->
<g id="edge25" class="edge">
<title>manager&#45;&gt;logstorage</title>
<path fill="none" stroke="black" d="M734.77,-433.86C722.89,-423.96 708.58,-410.76 698,-397 682.97,-377.45 670.34,-352.4 661.96,-333.69"/>
<polygon fill="black" stroke="black" points="665.07,-332.07 657.87,-324.29 658.65,-334.86 665.07,-332.07"/>
</g>
<!-- monitor -->
<g id="node11" class="node">
<title>monitor</title>
<polygon fill="none" stroke="black" points="995,-129.5 921,-129.5 921,-93.5 995,-93.5 995,-129.5"/>
<text text-anchor="middle" x="958" y="-107.8" font-family="Times,serif" font-size="14.00">Monitor</text>
</g>
<!-- monitor&#45;&gt;installation -->
<g id="edge26" class="edge">
<title>monitor&#45;&gt;installation</title>
<path fill="none" stroke="black" d="M947.47,-93.45C938.43,-80.39 924.16,-63.11 907,-54 875.09,-37.06 780.33,-27.39 717.35,-22.68"/>
<polygon fill="black" stroke="black" points="717.37,-19.17 707.14,-21.93 716.86,-26.15 717.37,-19.17"/>
</g>
</g>
</svg>
