<?xml version="1.0" encoding="UTF-8" standalone="no"?>
<!DOCTYPE svg PUBLIC "-//W3C//DTD SVG 1.1//EN"
 "http://www.w3.org/Graphics/SVG/1.1/DTD/svg11.dtd">
<!-- Generated by graphviz version 2.43.0 (0)
 -->
<!-- Title: Controller Dependency Graph Pages: 1 -->
<svg width="1100pt" height="478pt"
 viewBox="0.00 0.00 1100.20 478.00" xmlns="http://www.w3.org/2000/svg" xmlns:xlink="http://www.w3.org/1999/xlink">
<g id="graph0" class="graph" transform="scale(1 1) rotate(0) translate(4 474)">
<title>Controller Dependency Graph</title>
<polygon fill="white" stroke="transparent" points="-4,4 -4,-474 1096.2,-474 1096.2,4 -4,4"/>
<!-- amazoncloudintegration -->
<g id="node1" class="node">
<title>amazoncloudintegration</title>
<polygon fill="none" stroke="black" points="217.7,-129.5 23.7,-129.5 23.7,-93.5 217.7,-93.5 217.7,-129.5"/>
<text text-anchor="middle" x="120.7" y="-107.8" font-family="Times,serif" font-size="14.00">AmazonCloudIntegration</text>
</g>
<!-- installation -->
<g id="node7" class="node">
<title>installation</title>
<polygon fill="none" stroke="black" points="684.7,-36 586.7,-36 586.7,0 684.7,0 684.7,-36"/>
<text text-anchor="middle" x="635.7" y="-14.3" font-family="Times,serif" font-size="14.00">Installation</text>
</g>
<!-- amazoncloudintegration&#45;&gt;installation -->
<g id="edge1" class="edge">
<title>amazoncloudintegration&#45;&gt;installation</title>
<path fill="none" stroke="black" d="M147.32,-93.25C169.08,-80.07 201.14,-62.74 231.7,-54 294.81,-35.95 480.3,-25.63 576.43,-21.35"/>
<polygon fill="black" stroke="black" points="576.73,-24.84 586.57,-20.91 576.43,-17.85 576.73,-24.84"/>
</g>
<!-- apiserver -->
<g id="node2" class="node">
<title>apiserver</title>
<polygon fill="none" stroke="black" points="143.2,-237 54.2,-237 54.2,-201 143.2,-201 143.2,-237"/>
<text text-anchor="middle" x="98.7" y="-215.3" font-family="Times,serif" font-size="14.00">APIServer</text>
</g>
<!-- apiserver&#45;&gt;amazoncloudintegration -->
<g id="edge2" class="edge">
<title>apiserver&#45;&gt;amazoncloudintegration</title>
<path fill="none" stroke="black" stroke-dasharray="5,2" d="M97.61,-200.72C97.35,-191.02 97.63,-178.74 99.7,-168 101.6,-158.19 105.07,-147.86 108.65,-138.8"/>
<polygon fill="black" stroke="black" points="111.89,-140.13 112.51,-129.55 105.43,-137.43 111.89,-140.13"/>
<text text-anchor="middle" x="165.7" y="-171.8" font-family="Times,serif" font-size="14.00">amazonCRDExists</text>
</g>
<!-- clusterconnection -->
<g id="node5" class="node">
<title>clusterconnection</title>
<polygon fill="none" stroke="black" points="364.2,-73.5 364.2,-149.5 607.2,-149.5 607.2,-73.5 364.2,-73.5"/>
<text text-anchor="middle" x="485.7" y="-134.3" font-family="Times,serif" font-size="14.00">ClusterConnection</text>
<polyline fill="none" stroke="black" points="364.2,-126.5 607.2,-126.5 "/>
<text text-anchor="middle" x="485.7" y="-111.3" font-family="Times,serif" font-size="14.00">Standalone</text>
<text text-anchor="middle" x="485.7" y="-96.3" font-family="Times,serif" font-size="14.00">ManagementCluster</text>
<text text-anchor="middle" x="485.7" y="-81.3" font-family="Times,serif" font-size="14.00">ManagementClusterConnection</text>
</g>
<!-- apiserver&#45;&gt;clusterconnection -->
<g id="edge3" class="edge">
<title>apiserver&#45;&gt;clusterconnection</title>
<path fill="none" stroke="black" stroke-dasharray="5,2" d="M143.51,-206.85C170.3,-200.11 205,-191.25 235.7,-183 274.35,-172.62 316.24,-160.96 354.48,-150.16"/>
<polygon fill="black" stroke="black" points="355.45,-153.53 364.12,-147.44 353.54,-146.79 355.45,-153.53"/>
<text text-anchor="middle" x="310.7" y="-171.8" font-family="Times,serif" font-size="14.00">TSEE</text>
</g>
<!-- apiserver&#45;&gt;installation -->
<g id="edge4" class="edge">
<title>apiserver&#45;&gt;installation</title>
<path fill="none" stroke="black" d="M65.32,-200.8C46.7,-189.21 25.21,-172.01 14.7,-150 -0.03,-119.11 -8.38,-98.27 14.7,-73 52.13,-32.04 428.11,-22.05 576.21,-19.7"/>
<polygon fill="black" stroke="black" points="576.52,-23.19 586.47,-19.54 576.42,-16.19 576.52,-23.19"/>
</g>
<!-- applicationlayer -->
<g id="node3" class="node">
<title>applicationlayer</title>
<polygon fill="none" stroke="black" points="1092.2,-129.5 955.2,-129.5 955.2,-93.5 1092.2,-93.5 1092.2,-129.5"/>
<text text-anchor="middle" x="1023.7" y="-107.8" font-family="Times,serif" font-size="14.00">ApplicationLayer</text>
</g>
<!-- applicationlayer&#45;&gt;installation -->
<g id="edge5" class="edge">
<title>applicationlayer&#45;&gt;installation</title>
<path fill="none" stroke="black" d="M1004.44,-93.35C988.52,-80.23 964.72,-62.93 940.7,-54 897.05,-37.77 770.83,-27.39 695.14,-22.43"/>
<polygon fill="black" stroke="black" points="695.01,-18.92 684.81,-21.77 694.57,-25.9 695.01,-18.92"/>
</g>
<!-- authentication -->
<g id="node4" class="node">
<title>authentication</title>
<polygon fill="none" stroke="black" points="819.7,-237 697.7,-237 697.7,-201 819.7,-201 819.7,-237"/>
<text text-anchor="middle" x="758.7" y="-215.3" font-family="Times,serif" font-size="14.00">Authentication</text>
</g>
<!-- authentication&#45;&gt;clusterconnection -->
<g id="edge6" class="edge">
<title>authentication&#45;&gt;clusterconnection</title>
<path fill="none" stroke="black" stroke-dasharray="5,2" d="M737.14,-200.96C722.71,-190.24 702.9,-176.82 683.7,-168 662.7,-158.35 639.65,-150.03 616.94,-142.99"/>
<polygon fill="black" stroke="black" points="617.82,-139.6 607.24,-140.05 615.79,-146.3 617.82,-139.6"/>
</g>
<!-- authentication&#45;&gt;installation -->
<g id="edge7" class="edge">
<title>authentication&#45;&gt;installation</title>
<path fill="none" stroke="black" d="M748,-200.69C726.32,-165.61 677.11,-85.99 651.64,-44.78"/>
<polygon fill="black" stroke="black" points="654.53,-42.8 646.29,-36.13 648.57,-46.48 654.53,-42.8"/>
</g>
<!-- clusterconnection&#45;&gt;installation -->
<g id="edge8" class="edge">
<title>clusterconnection&#45;&gt;installation</title>
<path fill="none" stroke="black" stroke-dasharray="5,2" d="M546.71,-73.28C564.34,-62.53 583.04,-51.12 598.72,-41.56"/>
<polygon fill="black" stroke="black" points="600.86,-44.35 607.58,-36.16 597.22,-38.38 600.86,-44.35"/>
</g>
<!-- compliance -->
<g id="node6" class="node">
<title>compliance</title>
<polygon fill="none" stroke="black" points="739.7,-397 639.7,-397 639.7,-361 739.7,-361 739.7,-397"/>
<text text-anchor="middle" x="689.7" y="-375.3" font-family="Times,serif" font-size="14.00">Compliance</text>
</g>
<!-- compliance&#45;&gt;authentication -->
<g id="edge9" class="edge">
<title>compliance&#45;&gt;authentication</title>
<path fill="none" stroke="black" d="M697.22,-360.79C709.25,-333.25 732.91,-279.06 747.12,-246.53"/>
<polygon fill="black" stroke="black" points="750.4,-247.75 751.2,-237.19 743.99,-244.95 750.4,-247.75"/>
</g>
<!-- compliance&#45;&gt;clusterconnection -->
<g id="edge10" class="edge">
<title>compliance&#45;&gt;clusterconnection</title>
<path fill="none" stroke="black" stroke-dasharray="5,2" d="M686.79,-360.92C683.1,-342.18 675.62,-311.62 662.7,-288 628.98,-226.33 611.01,-216.04 559.7,-168 555.42,-163.99 550.86,-160 546.18,-156.1"/>
<polygon fill="black" stroke="black" points="548.19,-153.22 538.22,-149.63 543.77,-158.65 548.19,-153.22"/>
</g>
<!-- compliance&#45;&gt;installation -->
<g id="edge11" class="edge">
<title>compliance&#45;&gt;installation</title>
<path fill="none" stroke="black" d="M740.03,-375.44C780.18,-370.76 835.23,-358.04 869.7,-324 889.76,-304.2 888.7,-291.68 888.7,-263.5 888.7,-263.5 888.7,-263.5 888.7,-110.5 888.7,-69.51 769.81,-41.72 695.03,-28.3"/>
<polygon fill="black" stroke="black" points="695.24,-24.78 684.78,-26.5 694.03,-31.67 695.24,-24.78"/>
</g>
<!-- logstorage -->
<g id="node10" class="node">
<title>logstorage</title>
<polygon fill="none" stroke="black" points="654.2,-324 555.2,-324 555.2,-288 654.2,-288 654.2,-324"/>
<text text-anchor="middle" x="604.7" y="-302.3" font-family="Times,serif" font-size="14.00">LogStorage</text>
</g>
<!-- compliance&#45;&gt;logstorage -->
<g id="edge12" class="edge">
<title>compliance&#45;&gt;logstorage</title>
<path fill="none" stroke="black" d="M669.13,-360.81C658.27,-351.74 644.78,-340.48 632.96,-330.6"/>
<polygon fill="black" stroke="black" points="635.01,-327.75 625.09,-324.03 630.52,-333.13 635.01,-327.75"/>
</g>
<!-- intrusiondetection -->
<g id="node8" class="node">
<title>intrusiondetection</title>
<polygon fill="none" stroke="black" points="510.2,-397 359.2,-397 359.2,-361 510.2,-361 510.2,-397"/>
<text text-anchor="middle" x="434.7" y="-375.3" font-family="Times,serif" font-size="14.00">IntrusionDetection</text>
</g>
<!-- intrusiondetection&#45;&gt;clusterconnection -->
<g id="edge13" class="edge">
<title>intrusiondetection&#45;&gt;clusterconnection</title>
<path fill="none" stroke="black" stroke-dasharray="5,2" d="M442.79,-360.87C452.25,-339.95 467.54,-303.23 474.7,-270 482.56,-233.53 485.17,-191.31 485.9,-159.78"/>
<polygon fill="black" stroke="black" points="489.4,-159.57 486.07,-149.51 482.4,-159.45 489.4,-159.57"/>
</g>
<!-- intrusiondetection&#45;&gt;installation -->
<g id="edge14" class="edge">
<title>intrusiondetection&#45;&gt;installation</title>
<path fill="none" stroke="black" d="M411.42,-360.78C387.71,-341.66 352.4,-308.36 337.7,-270 332.12,-255.43 292.49,-141.54 354.7,-73 383.72,-41.03 502.89,-27.58 576.4,-22.24"/>
<polygon fill="black" stroke="black" points="576.72,-25.72 586.46,-21.54 576.24,-18.74 576.72,-25.72"/>
</g>
<!-- intrusiondetection&#45;&gt;logstorage -->
<g id="edge15" class="edge">
<title>intrusiondetection&#45;&gt;logstorage</title>
<path fill="none" stroke="black" d="M475.42,-360.99C499.11,-351.1 529.17,-338.54 554.34,-328.03"/>
<polygon fill="black" stroke="black" points="555.85,-331.2 563.73,-324.11 553.15,-324.74 555.85,-331.2"/>
</g>
<!-- logcollector -->
<g id="node9" class="node">
<title>logcollector</title>
<polygon fill="none" stroke="black" points="341.2,-397 234.2,-397 234.2,-361 341.2,-361 341.2,-397"/>
<text text-anchor="middle" x="287.7" y="-375.3" font-family="Times,serif" font-size="14.00">LogCollector</text>
</g>
<!-- logcollector&#45;&gt;clusterconnection -->
<g id="edge16" class="edge">
<title>logcollector&#45;&gt;clusterconnection</title>
<path fill="none" stroke="black" stroke-dasharray="5,2" d="M294.64,-360.83C304.98,-336.22 325.89,-290.06 350.7,-255 376,-219.25 409.92,-183.48 437.43,-156.72"/>
<polygon fill="black" stroke="black" points="439.87,-159.23 444.64,-149.77 435.02,-154.19 439.87,-159.23"/>
<text text-anchor="middle" x="410.7" y="-258.8" font-family="Times,serif" font-size="14.00">AdditionalStores</text>
</g>
<!-- logcollector&#45;&gt;installation -->
<g id="edge17" class="edge">
<title>logcollector&#45;&gt;installation</title>
<path fill="none" stroke="black" d="M270.62,-360.96C258.99,-347.51 245.7,-327.62 245.7,-307 245.7,-307 245.7,-307 245.7,-110.5 245.7,-43.46 466.87,-25.5 576.1,-20.72"/>
<polygon fill="black" stroke="black" points="576.46,-24.21 586.31,-20.3 576.17,-17.21 576.46,-24.21"/>
</g>
<!-- logcollector&#45;&gt;logstorage -->
<g id="edge18" class="edge">
<title>logcollector&#45;&gt;logstorage</title>
<path fill="none" stroke="black" d="M341.42,-363.06C344.22,-362.35 346.99,-361.66 349.7,-361 416.29,-344.84 493.31,-328.9 545.13,-318.58"/>
<polygon fill="black" stroke="black" points="546.02,-321.97 555.15,-316.59 544.66,-315.11 546.02,-321.97"/>
</g>
<!-- logstorage&#45;&gt;authentication -->
<g id="edge19" class="edge">
<title>logstorage&#45;&gt;authentication</title>
<path fill="none" stroke="black" d="M635.87,-287.8C659.85,-274.56 693.15,-256.18 719.03,-241.9"/>
<polygon fill="black" stroke="black" points="720.79,-244.93 727.85,-237.03 717.4,-238.8 720.79,-244.93"/>
</g>
<!-- logstorage&#45;&gt;clusterconnection -->
<g id="edge20" class="edge">
<title>logstorage&#45;&gt;clusterconnection</title>
<path fill="none" stroke="black" stroke-dasharray="5,2" d="M598.92,-287.99C589.31,-261.06 568.33,-207.62 540.7,-168 538.26,-164.5 535.58,-161.01 532.77,-157.6"/>
<polygon fill="black" stroke="black" points="535.2,-155.05 526,-149.79 529.9,-159.64 535.2,-155.05"/>
</g>
<!-- logstorage&#45;&gt;installation -->
<g id="edge21" class="edge">
<title>logstorage&#45;&gt;installation</title>
<path fill="none" stroke="black" d="M606.55,-287.97C611.73,-240.19 626.42,-104.62 632.75,-46.27"/>
<polygon fill="black" stroke="black" points="636.23,-46.63 633.83,-36.31 629.27,-45.87 636.23,-46.63"/>
</g>
<!-- manager -->
<g id="node11" class="node">
<title>manager</title>
<polygon fill="none" stroke="black" points="729.7,-470 649.7,-470 649.7,-434 729.7,-434 729.7,-470"/>
<text text-anchor="middle" x="689.7" y="-448.3" font-family="Times,serif" font-size="14.00">Manager</text>
</g>
<!-- manager&#45;&gt;authentication -->
<g id="edge22" class="edge">
<title>manager&#45;&gt;authentication</title>
<path fill="none" stroke="black" d="M716.22,-433.98C728.37,-424.65 741.62,-411.93 748.7,-397 771.78,-348.36 767.99,-283.56 763.28,-247.39"/>
<polygon fill="black" stroke="black" points="766.69,-246.54 761.81,-237.13 759.76,-247.53 766.69,-246.54"/>
</g>
<!-- manager&#45;&gt;clusterconnection -->
<g id="edge23" class="edge">
<title>manager&#45;&gt;clusterconnection</title>
<path fill="none" stroke="black" stroke-dasharray="5,2" d="M660.27,-433.85C626.69,-412.61 572.91,-373.14 545.7,-324 537.68,-309.51 512.95,-217.44 497.86,-159.65"/>
<polygon fill="black" stroke="black" points="501.16,-158.43 495.25,-149.63 494.39,-160.19 501.16,-158.43"/>
</g>
<!-- manager&#45;&gt;compliance -->
<g id="edge24" class="edge">
<title>manager&#45;&gt;compliance</title>
<path fill="none" stroke="black" d="M689.7,-433.81C689.7,-425.79 689.7,-416.05 689.7,-407.07"/>
<polygon fill="black" stroke="black" points="693.2,-407.03 689.7,-397.03 686.2,-407.03 693.2,-407.03"/>
</g>
<!-- manager&#45;&gt;installation -->
<g id="edge25" class="edge">
<title>manager&#45;&gt;installation</title>
<path fill="none" stroke="black" d="M729.91,-447.3C797.52,-439.95 926.7,-420.59 926.7,-380 926.7,-380 926.7,-380 926.7,-110.5 926.7,-90.71 918.87,-84.41 902.7,-73 869.9,-49.85 763.17,-33.65 695,-25.37"/>
<polygon fill="black" stroke="black" points="695.16,-21.87 684.82,-24.16 694.33,-28.82 695.16,-21.87"/>
</g>
<!-- manager&#45;&gt;logstorage -->
<g id="edge26" class="edge">
<title>manager&#45;&gt;logstorage</title>
<path fill="none" stroke="black" d="M665.47,-433.93C653.45,-424.33 639.64,-411.39 630.7,-397 618.75,-377.73 612.1,-352.76 608.53,-334.01"/>
<polygon fill="black" stroke="black" points="611.96,-333.3 606.81,-324.04 605.06,-334.49 611.96,-333.3"/>
</g>
<!-- monitor -->
<g id="node12" class="node">
<title>monitor</title>
<polygon fill="none" stroke="black" points="860.7,-324 786.7,-324 786.7,-288 860.7,-288 860.7,-324"/>
<text text-anchor="middle" x="823.7" y="-302.3" font-family="Times,serif" font-size="14.00">Monitor</text>
</g>
<!-- monitor&#45;&gt;authentication -->
<g id="edge27" class="edge">
<title>monitor&#45;&gt;authentication</title>
<path fill="none" stroke="black" d="M810.55,-287.8C801.21,-275.59 788.52,-258.99 778.03,-245.28"/>
<polygon fill="black" stroke="black" points="780.69,-242.99 771.84,-237.18 775.13,-247.25 780.69,-242.99"/>
</g>
<!-- monitor&#45;&gt;installation -->
<g id="edge28" class="edge">
<title>monitor&#45;&gt;installation</title>
<path fill="none" stroke="black" d="M828.77,-287.72C834.06,-266.48 840.13,-229.72 828.7,-201 799.51,-127.63 722.86,-70.9 675.4,-41.43"/>
<polygon fill="black" stroke="black" points="676.97,-38.29 666.61,-36.08 673.33,-44.27 676.97,-38.29"/>
</g>
</g>
</svg>
